<mxfile host="65bd71144e" scale="5" border="10">
    <diagram id="tVcZCLwnk6YYUcV4bede" name="ページ1">
        <mxGraphModel dx="1090" dy="925" grid="1" gridSize="10" guides="1" tooltips="1" connect="1" arrows="1" fold="1" page="1" pageScale="1" pageWidth="1169" pageHeight="827" background="#ffffff" math="0" shadow="0">
            <root>
                <mxCell id="0"/>
                <mxCell id="1" parent="0"/>
                <mxCell id="36" style="edgeStyle=orthogonalEdgeStyle;html=1;entryX=0;entryY=0.5;entryDx=0;entryDy=0;endArrow=none;endFill=0;rounded=0;" parent="1" source="2" target="6" edge="1">
                    <mxGeometry relative="1" as="geometry"/>
                </mxCell>
                <mxCell id="37" style="edgeStyle=orthogonalEdgeStyle;html=1;entryX=0;entryY=0.5;entryDx=0;entryDy=0;endArrow=none;endFill=0;rounded=0;" parent="1" source="2" target="19" edge="1">
                    <mxGeometry relative="1" as="geometry"/>
                </mxCell>
                <mxCell id="2" value="ユーザー" style="swimlane;fontStyle=1;align=center;verticalAlign=top;childLayout=stackLayout;horizontal=1;startSize=26;horizontalStack=0;resizeParent=1;resizeParentMax=0;resizeLast=0;collapsible=1;marginBottom=0;" parent="1" vertex="1">
                    <mxGeometry x="50" y="365" width="255" height="98" as="geometry"/>
                </mxCell>
                <mxCell id="3" value="- id (ユーザーID)&#10;- username (ユーザー名)&#10;- password (パスワード)" style="text;strokeColor=none;fillColor=none;align=left;verticalAlign=top;spacingLeft=4;spacingRight=4;overflow=hidden;rotatable=0;points=[[0,0.5],[1,0.5]];portConstraint=eastwest;" parent="2" vertex="1">
                    <mxGeometry y="26" width="255" height="64" as="geometry"/>
                </mxCell>
                <mxCell id="4" value="" style="line;strokeWidth=1;fillColor=none;align=left;verticalAlign=middle;spacingTop=-1;spacingLeft=3;spacingRight=3;rotatable=0;labelPosition=right;points=[];portConstraint=eastwest;strokeColor=inherit;" parent="2" vertex="1">
                    <mxGeometry y="90" width="255" height="8" as="geometry"/>
                </mxCell>
                <mxCell id="6" value="日記" style="swimlane;fontStyle=1;align=center;verticalAlign=top;childLayout=stackLayout;horizontal=1;startSize=26;horizontalStack=0;resizeParent=1;resizeParentMax=0;resizeLast=0;collapsible=1;marginBottom=0;" parent="1" vertex="1">
                    <mxGeometry x="457" y="100" width="255" height="158" as="geometry"/>
                </mxCell>
                <mxCell id="7" value="- id (日記ID)&#10;- user_id (ユーザーID)&#10;- create_at (作成日時)&#10;- update_at (更新日時)&#10;- body (内容)&#10;- emotion (感情)&#10;- emotion_degree (感情度合い)" style="text;strokeColor=none;fillColor=none;align=left;verticalAlign=top;spacingLeft=4;spacingRight=4;overflow=hidden;rotatable=0;points=[[0,0.5],[1,0.5]];portConstraint=eastwest;" parent="6" vertex="1">
                    <mxGeometry y="26" width="255" height="124" as="geometry"/>
                </mxCell>
                <mxCell id="8" value="" style="line;strokeWidth=1;fillColor=none;align=left;verticalAlign=middle;spacingTop=-1;spacingLeft=3;spacingRight=3;rotatable=0;labelPosition=right;points=[];portConstraint=eastwest;strokeColor=inherit;" parent="6" vertex="1">
                    <mxGeometry y="150" width="255" height="8" as="geometry"/>
                </mxCell>
                <mxCell id="10" value="感情分析" style="swimlane;fontStyle=1;align=center;verticalAlign=top;childLayout=stackLayout;horizontal=1;startSize=26;horizontalStack=0;resizeParent=1;resizeParentMax=0;resizeLast=0;collapsible=1;marginBottom=0;labelBackgroundColor=none;labelBorderColor=none;fontColor=default;html=0;" parent="1" vertex="1">
                    <mxGeometry x="890" y="355" width="255" height="118" as="geometry"/>
                </mxCell>
                <mxCell id="11" value="- emotion (感情)&#10;- emotion_degree (感情度合い)" style="text;strokeColor=none;fillColor=none;align=left;verticalAlign=top;spacingLeft=4;spacingRight=4;overflow=hidden;rotatable=0;points=[[0,0.5],[1,0.5]];portConstraint=eastwest;labelBackgroundColor=none;labelBorderColor=none;fontColor=default;html=0;" parent="10" vertex="1">
                    <mxGeometry y="26" width="255" height="84" as="geometry"/>
                </mxCell>
                <mxCell id="12" value="" style="line;strokeWidth=1;fillColor=none;align=left;verticalAlign=middle;spacingTop=-1;spacingLeft=3;spacingRight=3;rotatable=0;labelPosition=right;points=[];portConstraint=eastwest;strokeColor=inherit;labelBackgroundColor=none;labelBorderColor=none;fontColor=default;html=0;" parent="10" vertex="1">
                    <mxGeometry y="110" width="255" height="8" as="geometry"/>
                </mxCell>
                <mxCell id="18" value="チャット" style="swimlane;fontStyle=1;align=center;verticalAlign=top;childLayout=stackLayout;horizontal=1;startSize=26;horizontalStack=0;resizeParent=1;resizeParentMax=0;resizeLast=0;collapsible=1;marginBottom=0;labelBackgroundColor=none;labelBorderColor=none;fontColor=default;html=0;" parent="1" vertex="1">
                    <mxGeometry x="457" y="590" width="255" height="138" as="geometry"/>
                </mxCell>
                <mxCell id="55" style="edgeStyle=none;html=1;entryX=0.5;entryY=0;entryDx=0;entryDy=0;rounded=0;endArrow=none;endFill=0;" edge="1" parent="18" source="19" target="18">
                    <mxGeometry relative="1" as="geometry">
                        <Array as="points">
                            <mxPoint x="353" y="78"/>
                            <mxPoint x="353" y="-70"/>
                            <mxPoint x="128" y="-70"/>
                        </Array>
                    </mxGeometry>
                </mxCell>
                <mxCell id="19" value="- id (チャットID)&#10;- user_id (ユーザーID)&#10;- role (役割)&#10;- message (メッセージ)&#10;- time (時間)" style="text;strokeColor=none;fillColor=none;align=left;verticalAlign=top;spacingLeft=4;spacingRight=4;overflow=hidden;rotatable=0;points=[[0,0.5],[1,0.5]];portConstraint=eastwest;labelBackgroundColor=none;labelBorderColor=none;fontColor=default;html=0;" parent="18" vertex="1">
                    <mxGeometry y="26" width="255" height="104" as="geometry"/>
                </mxCell>
                <mxCell id="20" value="" style="line;strokeWidth=1;fillColor=none;align=left;verticalAlign=middle;spacingTop=-1;spacingLeft=3;spacingRight=3;rotatable=0;labelPosition=right;points=[];portConstraint=eastwest;strokeColor=inherit;labelBackgroundColor=none;labelBorderColor=none;fontColor=default;html=0;" parent="18" vertex="1">
                    <mxGeometry y="130" width="255" height="8" as="geometry"/>
                </mxCell>
                <mxCell id="38" style="edgeStyle=orthogonalEdgeStyle;rounded=0;html=1;entryX=0;entryY=0.5;entryDx=0;entryDy=0;endArrow=none;endFill=0;" parent="1" source="7" target="11" edge="1">
                    <mxGeometry relative="1" as="geometry"/>
                </mxCell>
                <mxCell id="39" value="1" style="text;html=1;align=center;verticalAlign=middle;resizable=0;points=[];autosize=1;strokeColor=none;fillColor=none;" parent="1" vertex="1">
                    <mxGeometry x="305" y="384" width="30" height="30" as="geometry"/>
                </mxCell>
                <mxCell id="40" value="0...*" style="text;html=1;align=center;verticalAlign=middle;resizable=0;points=[];autosize=1;strokeColor=none;fillColor=none;" parent="1" vertex="1">
                    <mxGeometry x="417" y="150" width="40" height="30" as="geometry"/>
                </mxCell>
                <mxCell id="41" value="1" style="text;html=1;align=center;verticalAlign=middle;resizable=0;points=[];autosize=1;strokeColor=none;fillColor=none;" parent="1" vertex="1">
                    <mxGeometry x="180" y="463" width="30" height="30" as="geometry"/>
                </mxCell>
                <mxCell id="42" value="0...*" style="text;html=1;align=center;verticalAlign=middle;resizable=0;points=[];autosize=1;strokeColor=none;fillColor=none;" parent="1" vertex="1">
                    <mxGeometry x="417" y="637" width="40" height="30" as="geometry"/>
                </mxCell>
                <mxCell id="44" value="1" style="text;html=1;align=center;verticalAlign=middle;resizable=0;points=[];autosize=1;strokeColor=none;fillColor=none;" parent="1" vertex="1">
                    <mxGeometry x="712" y="155" width="30" height="30" as="geometry"/>
                </mxCell>
                <mxCell id="45" value="1" style="text;html=1;align=center;verticalAlign=middle;resizable=0;points=[];autosize=1;strokeColor=none;fillColor=none;" parent="1" vertex="1">
                    <mxGeometry x="860" y="390" width="30" height="30" as="geometry"/>
                </mxCell>
                <mxCell id="46" value="user" style="text;html=1;align=center;verticalAlign=middle;resizable=0;points=[];autosize=1;strokeColor=none;fillColor=none;" parent="1" vertex="1">
                    <mxGeometry x="305" y="414" width="50" height="30" as="geometry"/>
                </mxCell>
                <mxCell id="47" value="diaries" style="text;html=1;align=center;verticalAlign=middle;resizable=0;points=[];autosize=1;strokeColor=none;fillColor=none;" parent="1" vertex="1">
                    <mxGeometry x="397" y="180" width="60" height="30" as="geometry"/>
                </mxCell>
                <mxCell id="48" value="chats" style="text;html=1;align=center;verticalAlign=middle;resizable=0;points=[];autosize=1;strokeColor=none;fillColor=none;" parent="1" vertex="1">
                    <mxGeometry x="402" y="670" width="50" height="30" as="geometry"/>
                </mxCell>
                <mxCell id="49" value="analysis" style="text;html=1;align=center;verticalAlign=middle;resizable=0;points=[];autosize=1;strokeColor=none;fillColor=none;" parent="1" vertex="1">
                    <mxGeometry x="820" y="420" width="70" height="30" as="geometry"/>
                </mxCell>
                <mxCell id="50" value="user" style="text;html=1;align=center;verticalAlign=middle;resizable=0;points=[];autosize=1;strokeColor=none;fillColor=none;" parent="1" vertex="1">
                    <mxGeometry x="130" y="463" width="50" height="30" as="geometry"/>
                </mxCell>
                <mxCell id="51" value="diary" style="text;html=1;align=center;verticalAlign=middle;resizable=0;points=[];autosize=1;strokeColor=none;fillColor=none;" parent="1" vertex="1">
                    <mxGeometry x="712" y="190" width="50" height="30" as="geometry"/>
                </mxCell>
                <mxCell id="52" value="投稿する" style="text;html=1;align=center;verticalAlign=middle;resizable=0;points=[];autosize=1;strokeColor=none;fillColor=none;" parent="1" vertex="1">
                    <mxGeometry x="310" y="290" width="70" height="30" as="geometry"/>
                </mxCell>
                <mxCell id="53" value="送信する" style="text;html=1;align=center;verticalAlign=middle;resizable=0;points=[];autosize=1;strokeColor=none;fillColor=none;" parent="1" vertex="1">
                    <mxGeometry x="180" y="637" width="70" height="30" as="geometry"/>
                </mxCell>
                <mxCell id="54" value="分析される" style="text;html=1;align=center;verticalAlign=middle;resizable=0;points=[];autosize=1;strokeColor=none;fillColor=none;" parent="1" vertex="1">
                    <mxGeometry x="725" y="335" width="80" height="30" as="geometry"/>
                </mxCell>
                <mxCell id="56" value="1" style="text;html=1;align=center;verticalAlign=middle;resizable=0;points=[];autosize=1;strokeColor=none;fillColor=none;" vertex="1" parent="1">
                    <mxGeometry x="712" y="636" width="30" height="30" as="geometry"/>
                </mxCell>
                <mxCell id="57" value="1" style="text;html=1;align=center;verticalAlign=middle;resizable=0;points=[];autosize=1;strokeColor=none;fillColor=none;" vertex="1" parent="1">
                    <mxGeometry x="584" y="560" width="30" height="30" as="geometry"/>
                </mxCell>
                <mxCell id="58" value="user_chat" style="text;html=1;align=center;verticalAlign=middle;resizable=0;points=[];autosize=1;strokeColor=none;fillColor=none;" vertex="1" parent="1">
                    <mxGeometry x="712" y="670" width="80" height="30" as="geometry"/>
                </mxCell>
                <mxCell id="59" value="assistant_chat" style="text;html=1;align=center;verticalAlign=middle;resizable=0;points=[];autosize=1;strokeColor=none;fillColor=none;" vertex="1" parent="1">
                    <mxGeometry x="480" y="560" width="100" height="30" as="geometry"/>
                </mxCell>
                <mxCell id="60" value="返答する" style="text;html=1;align=center;verticalAlign=middle;resizable=0;points=[];autosize=1;strokeColor=none;fillColor=none;" vertex="1" parent="1">
                    <mxGeometry x="735" y="530" width="70" height="30" as="geometry"/>
                </mxCell>
            </root>
        </mxGraphModel>
    </diagram>
</mxfile>